{"glyphs":{":":{"x_min":0,"x_max":267,"ha":267,"o":"m 111 519 q 137 519 156 500 q 174 482 174 456 q 174 430 156 411 q 137 393 111 393 q 85 393 66 411 q 48 430 48 456 q 48 482 66 500 q 85 519 111 519 z m 191 499 q 218 474 218 437 q 218 403 193 378 q 168 354 136 354 q 96 354 72 382 l 75 386 q 106 368 132 368 q 163 368 184 389 q 206 410 206 439 q 206 467 187 495 z m 111 159 q 137 159 156 141 q 174 122 174 96 q 174 70 156 51 q 137 33 111 33 q 85 33 66 51 q 48 70 48 96 q 48 122 66 141 q 85 159 111 159 z m 191 139 q 218 114 218 76 q 218 43 193 18 q 168 -7 136 -7 q 96 -7 72 22 l 75 26 q 106 7 132 7 q 163 7 184 29 q 206 50 206 79 q 206 107 187 135 z"},"$":{"x_min":0,"x_max":586,"ha":586,"o":"m 503 672 q 448 584 424 512 l 423 507 l 420 508 q 401 615 305 643 l 305 428 l 334 420 l 334 611 q 360 599 371 589 q 382 579 396 554 l 392 554 l 389 558 q 362 582 347 590 l 347 416 l 355 414 q 437 390 469 363 q 529 312 529 230 q 529 150 469 95 q 408 39 321 39 q 316 39 305 40 l 305 -50 l 266 -50 l 266 2 l 258 4 q 219 12 199 17 l 153 28 q 123 36 91 36 q 64 36 39 25 l 33 40 q 60 50 85 50 q 119 50 202 30 q 232 23 259 18 l 266 16 l 266 44 q 229 48 146 70 q 109 80 84 80 q 54 80 20 61 l 16 68 l 21 75 q 77 168 101 240 l 109 240 q 118 172 159 130 q 200 89 266 82 l 266 290 l 255 292 q 159 317 133 331 q 106 345 95 377 l 113 368 q 127 340 200 322 l 258 308 l 266 306 l 266 332 l 256 334 q 155 355 120 382 q 93 402 77 437 q 61 472 61 510 q 61 592 116 640 q 171 688 266 688 l 266 754 l 305 754 l 305 686 q 322 683 334 679 l 334 737 l 347 728 l 347 679 q 358 677 408 664 q 433 658 451 658 q 477 658 500 675 z m 346 79 q 395 89 421 118 q 448 146 448 188 q 448 229 417 264 q 398 286 378 297 q 357 308 311 320 l 304 322 l 304 77 q 308 77 310 77 q 311 77 329 79 q 331 79 334 79 l 334 287 q 412 270 430 221 l 426 221 q 396 257 346 269 z m 265 437 l 265 609 q 231 606 211 586 q 190 566 190 535 q 190 491 243 458 l 243 455 q 176 483 176 537 q 176 572 202 597 q 229 623 265 623 l 265 649 q 216 649 181 619 q 146 589 146 547 q 146 468 259 438 z m 535 652 l 530 644 q 498 588 477 543 l 458 502 l 456 496 l 444 500 q 448 509 448 510 l 469 556 q 497 616 522 657 z m 503 360 q 570 312 570 223 q 570 143 512 79 q 455 15 372 4 l 351 1 l 346 0 l 346 -88 l 292 -88 l 282 -75 l 334 -75 l 334 14 q 374 14 422 34 q 483 59 520 111 q 556 163 556 225 q 556 303 503 357 z m 157 221 q 166 173 186 147 q 206 121 253 94 l 253 92 q 209 102 179 136 q 149 170 143 217 z"},"?":{"x_min":0,"x_max":434,"ha":434,"o":"m 52 419 q 17 462 17 510 q 17 572 66 611 q 115 650 192 650 q 272 650 326 607 q 379 563 379 499 q 379 453 357 419 q 334 385 280 349 l 229 314 q 203 297 183 270 q 164 243 165 226 l 166 199 q 167 192 162 187 q 157 182 150 183 q 139 183 130 199 q 121 214 121 234 q 121 301 195 377 q 244 427 261 456 q 278 484 278 519 q 278 560 253 586 q 229 611 189 611 q 155 611 131 590 q 106 569 106 539 q 106 507 146 483 q 142 480 142 480 l 115 465 q 87 449 52 419 z m 349 622 q 421 569 421 487 q 421 433 386 387 q 368 363 281 299 l 254 279 q 204 242 204 208 q 204 191 217 168 l 200 173 q 191 190 191 208 q 191 234 208 256 q 226 277 272 310 q 351 363 380 403 q 410 442 410 493 q 410 531 392 564 q 375 598 346 617 z m 207 475 l 196 469 q 125 428 87 400 l 83 397 l 75 407 l 80 411 q 145 456 182 475 q 142 500 142 541 q 142 561 158 575 q 174 589 198 589 q 244 589 267 536 l 264 536 q 234 576 196 576 q 154 576 154 538 q 154 498 207 475 z m 195 159 q 221 159 240 141 q 258 122 258 96 q 258 70 240 51 q 221 33 195 33 q 169 33 150 51 q 132 70 132 96 q 132 122 150 141 q 169 159 195 159 z m 274 139 q 302 114 302 76 q 302 43 277 18 q 252 -7 219 -7 q 180 -7 156 22 l 159 26 q 190 7 216 7 q 246 7 268 29 q 290 50 290 79 q 290 106 271 135 z"},"<":{"x_min":0,"x_max":500,"ha":500,"o":"m 459 623 l 459 573 l 175 390 l 459 199 l 459 68 l 42 350 l 42 357 z"},"'":{"x_min":0,"x_max":192,"ha":192,"o":"m 119 667 l 86 471 l 48 471 l 33 667 z m 80 433 l 62 443 l 109 443 l 147 647 l 159 642 l 121 433 z"},"=":{"x_min":0,"x_max":587,"ha":587,"o":"m 473 471 l 473 410 l 75 410 l 75 471 z m 501 443 l 512 433 l 512 369 l 100 369 l 91 383 l 501 383 z m 473 304 l 473 243 l 75 243 l 75 304 z m 501 277 l 512 266 l 512 203 l 100 203 l 91 216 l 501 216 z"},"a":{"x_min":0,"x_max":757,"ha":757,"o":"m 472 667 l 421 609 l 501 396 l 521 407 l 449 599 l 500 659 l 513 653 l 464 596 l 532 414 q 538 418 539 419 l 555 433 q 570 445 574 450 q 586 394 613 350 q 599 351 592 351 q 546 351 524 336 l 613 97 l 686 40 l 439 40 l 507 97 l 453 239 q 399 185 370 136 l 359 139 q 388 187 445 246 l 449 251 l 439 272 q 381 224 343 160 l 334 174 q 309 215 270 267 l 265 272 q 227 189 227 137 q 227 106 238 85 q 248 63 288 14 q 292 9 299 0 l 35 0 l 25 13 l 274 13 l 266 23 q 233 62 223 84 q 213 106 213 135 q 213 185 254 284 l 232 306 q 226 291 216 260 l 200 210 q 187 170 187 144 q 187 117 196 99 q 206 81 235 49 q 238 46 244 40 l 0 40 q 70 76 111 137 q 151 198 191 326 l 193 333 q 167 354 119 359 q 146 399 160 443 q 167 437 168 435 l 190 415 q 202 404 217 393 l 226 414 l 220 419 q 196 440 179 454 l 175 457 l 183 468 q 208 451 232 428 l 299 611 l 247 667 z m 352 510 l 298 368 q 302 363 303 362 l 323 340 q 339 322 364 285 l 369 278 q 390 304 418 330 z m 330 566 l 252 361 q 289 323 316 286 l 338 255 q 339 254 343 249 q 348 253 348 254 l 355 262 q 356 264 360 269 q 326 321 281 364 l 343 529 z m 617 426 q 627 382 670 306 q 660 307 658 307 l 619 311 q 592 313 580 313 q 578 313 570 312 l 651 96 l 760 0 l 478 0 l 468 13 l 728 13 l 640 91 l 553 321 q 569 325 591 325 q 617 325 649 321 l 644 332 q 612 389 602 436 z"},"L":{"x_min":0,"x_max":547,"ha":547,"o":"m 20 667 l 253 667 l 185 600 l 185 78 l 188 78 l 206 76 l 210 76 l 210 595 l 263 648 l 270 637 l 223 589 l 223 76 q 245 74 265 74 q 342 74 382 109 q 422 143 436 222 q 481 89 530 40 l 20 40 l 87 95 l 87 604 z m 578 44 l 556 0 l 46 0 l 34 13 l 550 13 l 564 44 q 511 110 479 191 l 477 196 l 492 190 l 496 182 q 528 110 574 49 z"},"3":{"x_min":0,"x_max":600,"ha":600,"o":"m 158 254 q 151 225 151 197 q 151 66 275 66 q 337 66 372 104 q 407 143 407 211 q 407 280 368 327 q 330 374 274 374 q 257 374 222 367 l 216 365 l 235 418 l 240 418 q 259 417 270 417 q 321 417 354 448 q 387 479 387 528 q 387 576 351 610 q 315 644 264 644 q 215 644 185 617 q 154 590 154 548 q 154 521 167 505 q 180 488 201 488 q 215 488 228 500 l 235 496 q 217 453 164 453 q 125 453 99 479 q 73 506 73 545 q 73 583 106 619 q 163 679 280 679 q 367 679 423 637 q 478 596 478 532 q 478 485 449 450 q 419 415 370 403 q 357 399 358 396 q 358 391 368 387 q 510 343 510 211 q 510 125 448 77 q 386 28 277 28 q 178 28 123 70 q 67 112 50 201 l 55 202 q 116 222 158 254 z m 202 243 q 201 239 201 237 q 196 195 196 182 q 196 111 256 80 l 256 75 q 223 84 203 114 q 182 144 182 183 q 182 204 189 239 l 189 243 z m 376 293 q 337 332 278 332 q 253 332 236 326 l 232 324 l 228 337 q 258 344 278 344 q 351 344 379 293 z m 484 340 q 521 302 536 271 q 550 241 550 198 q 550 104 480 46 q 410 -12 294 -12 q 173 -12 110 55 l 110 58 l 115 54 q 192 0 292 0 q 399 0 468 55 q 537 111 537 198 q 537 234 526 261 q 515 289 484 330 q 483 332 480 335 z m 445 641 q 475 634 497 596 q 520 559 520 519 q 520 468 488 428 q 456 388 407 377 l 397 387 q 447 401 477 436 q 507 472 507 517 q 507 580 449 637 q 448 638 445 641 z m 374 539 l 370 545 q 330 601 271 601 q 239 601 219 583 q 198 566 198 539 q 198 519 216 506 q 217 506 218 504 l 213 497 q 184 509 184 540 q 184 571 209 592 q 233 613 271 613 q 310 613 338 593 q 367 574 378 539 z m 271 473 q 238 420 183 420 q 143 420 105 458 l 102 461 l 102 464 q 106 461 106 461 l 123 449 q 145 432 181 432 q 205 432 227 445 q 249 458 260 479 z"},";":{"x_min":0,"x_max":262,"ha":262,"o":"m 150 148 q 165 114 165 82 q 165 -40 21 -87 l 17 -80 l 21 -76 q 72 -34 72 25 q 72 67 46 98 q 52 100 55 101 q 108 121 150 148 z m 199 134 q 207 104 207 80 q 207 -59 45 -121 l 39 -107 l 47 -104 q 130 -71 162 -23 q 194 25 194 76 q 194 101 185 140 z m 109 519 q 135 519 153 500 q 172 482 172 456 q 172 430 153 411 q 135 393 109 393 q 83 393 64 411 q 45 430 45 456 q 45 482 64 500 q 83 519 109 519 z m 188 499 q 216 474 216 437 q 216 403 191 378 q 167 354 133 354 q 94 354 69 382 l 73 386 q 104 368 130 368 q 160 368 182 389 q 204 410 204 439 q 204 467 185 495 z"},"J":{"x_min":0,"x_max":513,"ha":513,"o":"m 467 667 l 401 601 l 401 238 l 401 222 q 401 186 425 172 q 419 108 363 68 q 307 28 224 28 q 70 28 26 148 l 19 167 q 14 181 7 186 q 0 191 -20 195 l 126 304 q 118 256 118 207 q 118 141 144 102 q 170 62 215 62 q 303 62 303 203 l 303 606 l 237 667 z m 487 639 l 439 590 l 439 233 l 439 214 l 446 185 q 452 172 473 159 q 466 117 431 74 q 360 -15 232 -15 q 134 -15 76 42 l 76 45 q 112 18 145 7 q 177 -3 225 -3 q 310 -3 376 42 q 443 87 458 154 q 436 172 431 185 q 426 198 426 236 l 426 596 l 479 649 z m 171 292 l 170 286 q 161 231 161 206 q 161 111 232 77 l 225 77 q 148 100 148 198 q 148 248 159 292 z"},"V":{"x_min":0,"x_max":620,"ha":620,"o":"m 672 821 l 677 815 q 613 754 573 684 q 532 613 476 464 l 333 91 l 391 40 l 166 40 l 230 93 l 52 602 l -23 667 l 219 667 l 150 598 l 311 139 l 330 185 l 186 591 l 236 640 l 245 631 l 201 588 l 336 202 l 440 478 q 486 601 486 650 q 486 700 450 736 l 459 738 q 601 765 672 821 z m 698 791 l 703 780 q 609 707 510 448 l 373 89 l 449 0 l 197 0 l 186 13 l 420 13 l 358 85 l 499 451 l 525 521 q 560 610 608 685 q 656 759 698 791 z"},"\"":{"x_min":0,"x_max":338,"ha":338,"o":"m 119 667 l 86 470 l 48 470 l 33 667 z m 80 433 l 62 442 l 109 442 l 147 646 l 159 641 l 121 433 z m 265 667 l 232 470 l 193 470 l 179 667 z m 225 433 l 208 442 l 255 442 l 293 646 l 305 641 l 267 433 z"},"7":{"x_min":0,"x_max":600,"ha":600,"o":"m 523 657 q 513 568 456 461 l 410 374 q 340 244 340 75 l 341 40 l 210 40 q 210 83 229 154 q 255 261 354 396 l 415 479 q 434 504 452 543 l 184 543 l 184 533 l 184 523 q 184 426 116 426 q 92 426 72 441 l 94 441 q 105 438 115 438 q 171 438 171 519 l 172 539 l 172 556 l 458 556 l 460 562 q 465 574 466 582 l 144 582 l 144 561 q 144 459 94 459 q 80 459 69 467 q 59 474 59 484 q 59 508 81 508 q 89 508 97 501 q 101 497 104 497 q 118 497 118 534 l 118 561 l 118 657 z m 561 638 q 552 543 496 441 l 447 354 q 386 243 386 89 q 386 54 390 7 l 391 0 l 237 0 l 229 13 l 375 13 q 371 45 371 79 q 371 244 438 363 l 483 445 q 535 538 549 632 l 550 638 z"},"S":{"x_min":0,"x_max":555,"ha":555,"o":"m 479 661 q 453 627 438 590 q 408 517 398 500 l 396 497 q 394 502 393 505 q 379 549 371 566 q 362 583 344 599 q 300 639 243 639 q 191 639 156 610 q 122 581 122 537 q 122 455 245 425 l 328 405 q 504 362 504 219 q 504 139 444 84 q 383 30 294 30 q 239 30 170 47 l 113 61 q 78 69 56 69 q 26 69 -6 50 l -10 57 q 51 148 75 231 l 84 229 q 94 152 146 109 q 197 67 280 67 q 345 67 384 97 q 422 127 422 179 q 422 238 369 276 q 330 304 210 327 q 118 345 77 387 q 35 429 35 504 q 35 581 91 629 q 146 677 235 677 q 292 677 368 657 q 404 647 421 647 q 445 647 473 664 z m 509 641 l 504 633 q 484 600 470 569 q 436 497 432 489 l 429 485 l 417 490 l 419 495 q 434 527 460 579 l 494 643 l 496 647 z m 366 543 q 312 601 251 601 q 214 601 189 579 q 165 558 165 524 q 165 488 214 450 l 218 448 l 216 444 q 151 473 151 527 q 151 565 179 589 q 206 613 250 613 q 292 613 323 595 q 355 578 370 545 z m 479 350 q 545 299 545 212 q 545 119 473 54 q 400 -11 297 -11 q 244 -11 202 0 l 124 19 q 96 26 65 26 q 37 26 14 15 l 8 29 q 33 41 60 41 q 89 41 126 32 l 202 14 q 247 3 296 3 q 394 3 463 65 q 531 127 531 216 q 531 291 479 347 z m 131 209 q 149 121 228 84 l 228 81 q 137 107 118 207 z m 70 367 l 86 358 q 103 329 181 310 l 259 291 q 339 271 366 256 q 393 242 404 212 l 400 210 q 378 236 353 248 q 327 259 254 276 q 149 301 113 319 q 77 336 70 367 z"},"}":{"x_min":0,"x_max":440,"ha":440,"o":"m 373 382 l 373 346 q 323 343 301 327 q 279 310 279 276 q 279 256 287 224 q 309 143 309 109 q 309 30 266 -11 q 229 -44 136 -44 l 73 -46 l 73 -6 q 139 -6 169 22 q 199 50 199 113 q 199 137 192 161 l 179 207 q 172 232 172 252 q 172 323 247 351 q 225 361 208 379 q 238 363 262 357 q 276 360 295 362 l 295 366 q 175 385 175 466 q 175 487 182 509 l 196 550 q 202 566 202 591 q 202 620 187 654 q 158 676 97 676 l 90 689 q 145 689 176 671 q 147 707 73 707 l 73 747 q 102 745 134 745 q 226 745 260 717 q 310 676 310 592 q 310 562 287 491 q 279 467 279 449 q 279 388 373 382 z m 83 -73 l 157 -71 q 250 -71 286 -38 q 330 3 330 83 q 330 115 308 197 q 299 229 299 249 q 299 283 321 300 q 343 316 393 319 l 393 363 l 407 350 l 407 305 q 357 303 335 286 q 313 270 313 235 q 313 215 321 184 q 343 102 343 69 q 343 -10 300 -51 q 264 -85 170 -85 l 115 -86 l 97 -86 z m 324 396 q 300 416 300 437 q 300 454 308 478 q 330 546 330 582 q 330 629 295 688 q 344 644 344 565 q 344 528 321 464 q 313 442 313 429 q 313 418 324 396 z"},"Z":{"x_min":0,"x_max":641,"ha":641,"o":"m 553 667 l 161 82 l 192 82 l 576 656 l 584 644 l 208 82 l 257 82 l 296 83 l 316 83 q 356 83 392 98 q 428 113 446 137 q 469 167 485 204 q 526 97 572 40 l 17 40 l 378 583 l 369 584 l 306 585 q 217 585 184 566 q 150 546 135 486 l 125 498 q 134 539 165 566 q 185 585 213 591 q 241 597 305 597 q 345 597 379 596 l 387 595 l 406 623 q 372 625 338 625 q 237 625 199 617 q 162 608 134 579 q 112 556 99 517 l 95 525 q 70 581 25 661 l 22 667 z m 624 44 l 599 0 l 42 0 l 31 13 l 591 13 l 609 44 q 553 112 521 199 l 537 193 q 562 119 620 48 z"},"x":{"x_min":0,"x_max":698,"ha":698,"o":"m 623 667 l 515 596 l 359 397 l 538 104 l 623 40 l 371 40 l 433 100 l 321 282 l 184 104 l 264 0 l -3 0 l -11 13 l 238 13 l 168 104 l 314 294 l 301 315 l 141 113 l 201 40 l -23 40 l 91 113 l 280 353 l 127 601 l 35 667 l 292 667 l 229 611 l 337 433 l 355 456 l 264 601 l 318 653 l 327 645 l 280 601 l 363 465 l 469 601 l 408 667 z m 640 629 l 545 573 l 407 394 l 575 116 l 694 0 l 391 0 l 382 13 l 663 13 l 564 109 l 391 394 l 536 582 l 633 639 z"},")":{"x_min":0,"x_max":444,"ha":444,"o":"m 73 753 q 147 749 213 702 q 335 615 335 377 q 335 100 228 7 q 163 -49 73 -59 l 73 -13 q 117 2 140 21 q 163 41 180 77 q 205 128 216 209 q 226 290 226 431 q 226 570 192 632 q 158 695 73 710 z m 236 715 q 312 668 347 585 q 381 501 381 366 q 381 156 315 45 q 248 -66 105 -93 l 97 -84 q 241 -58 304 49 q 368 155 368 368 q 368 500 338 574 q 308 648 228 715 z"},"&":{"x_min":0,"x_max":802,"ha":802,"o":"m 274 453 q 261 501 261 543 q 261 608 293 648 q 326 688 380 688 q 430 688 465 655 q 500 622 500 576 q 500 482 366 440 q 418 308 475 226 q 483 242 487 262 q 437 340 404 422 l 411 425 q 527 472 527 567 q 527 602 504 640 l 500 646 q 539 612 539 560 q 539 467 421 413 q 455 332 490 279 q 492 302 492 325 q 492 361 487 385 l 492 382 q 558 332 616 311 q 557 251 511 169 q 568 89 622 89 q 643 89 657 101 l 666 109 q 673 114 679 114 q 695 114 695 101 q 695 80 663 60 q 631 40 599 40 q 550 40 493 76 q 423 0 314 0 q 213 0 141 66 l 144 70 q 223 14 314 14 q 416 14 481 84 q 471 91 463 99 q 392 44 303 44 q 199 44 133 100 q 66 157 66 245 q 66 320 114 369 q 161 418 265 451 z m 300 375 q 212 326 212 233 q 212 183 237 148 q 263 112 309 98 l 309 92 q 260 99 230 137 q 199 175 199 229 q 199 330 294 387 l 292 394 q 289 402 286 410 q 229 388 198 341 q 167 294 167 233 q 167 169 207 126 q 246 83 306 83 q 372 83 426 141 q 363 228 300 375 z m 390 494 q 443 521 443 578 q 443 609 425 629 q 406 650 379 650 q 324 650 324 586 q 324 535 353 478 q 356 479 358 480 l 371 485 q 372 485 377 488 q 354 544 354 578 q 354 626 393 626 q 408 626 426 610 l 422 605 l 418 608 q 405 616 394 616 q 364 616 364 576 q 364 541 390 494 z m 641 276 q 585 218 563 175 l 562 171 l 566 167 q 607 119 642 119 q 649 119 660 122 l 660 118 q 647 110 633 110 q 588 110 550 171 q 586 237 632 283 z m 729 75 q 718 44 689 22 q 660 1 628 1 q 583 1 550 28 l 550 32 q 583 13 617 13 q 678 13 714 76 l 716 80 z"},"_":{"x_min":0,"x_max":500,"ha":500,"o":"m 16 -90 l 483 -90 l 483 -147 l 16 -147 z"},"v":{"x_min":0,"x_max":620,"ha":620,"o":"m 672 821 l 677 815 q 613 754 573 684 q 532 613 476 464 l 333 91 l 391 40 l 166 40 l 230 93 l 52 602 l -23 667 l 219 667 l 150 598 l 311 139 l 330 185 l 186 591 l 236 640 l 245 631 l 201 588 l 336 202 l 440 478 q 486 601 486 650 q 486 700 450 736 l 459 738 q 601 765 672 821 z m 698 791 l 703 780 q 609 707 510 448 l 373 89 l 449 0 l 197 0 l 186 13 l 420 13 l 358 85 l 499 451 l 525 521 q 560 610 608 685 q 656 759 698 791 z"},"O":{"x_min":0,"x_max":624,"ha":624,"o":"m 398 558 l 390 562 q 343 588 304 588 q 176 588 176 336 q 176 151 255 91 l 251 86 q 202 121 181 177 q 161 234 161 330 q 161 601 303 601 q 368 601 398 558 z m 294 673 q 413 673 484 583 q 555 493 555 343 q 555 201 485 116 q 415 32 296 32 q 203 32 130 91 q 23 179 23 352 q 23 499 97 586 q 170 673 294 673 z m 294 631 q 129 631 129 341 q 129 73 292 73 q 367 73 407 144 q 446 215 446 352 q 446 506 408 567 q 368 631 294 631 z m 450 648 q 520 614 560 533 q 601 451 601 344 q 601 187 521 90 q 441 -6 311 -6 q 228 -6 156 50 l 156 52 q 216 8 308 8 q 430 8 509 100 q 587 192 587 336 q 587 443 552 523 q 516 603 450 643 z"},"(":{"x_min":0,"x_max":444,"ha":444,"o":"m 359 736 l 372 725 l 372 667 q 356 668 350 668 q 300 668 268 631 q 238 597 227 544 q 216 491 216 384 q 216 117 258 36 q 275 4 334 -5 l 334 -49 q 243 -49 169 16 q 111 67 87 146 q 63 225 63 363 q 63 476 83 545 q 102 615 147 667 q 183 707 224 726 q 266 746 334 753 l 334 709 q 263 701 221 655 q 192 623 181 566 q 169 509 169 394 q 169 169 206 93 q 221 60 247 34 q 223 79 213 162 q 203 246 203 402 q 203 565 249 627 q 288 680 348 680 l 359 680 z m 372 -39 l 372 -93 q 308 -86 254 -62 q 200 -38 169 -1 l 169 1 q 229 -59 321 -73 l 351 -77 q 352 -77 359 -79 l 359 -27 z"},"C":{"x_min":0,"x_max":582,"ha":582,"o":"m 533 651 l 528 642 q 484 565 452 489 l 447 478 l 441 481 q 430 555 389 599 q 348 642 290 642 q 228 642 186 588 q 134 521 134 359 q 134 221 182 142 q 230 63 315 63 q 384 63 425 109 q 465 155 473 240 q 475 260 490 260 q 509 260 509 229 q 509 181 487 130 q 442 23 300 23 q 173 23 98 112 q 23 201 23 353 q 23 493 101 588 q 179 683 294 683 q 349 683 418 656 q 455 642 479 642 q 505 642 525 656 z m 392 567 q 347 603 308 603 q 181 603 181 361 q 181 251 210 178 q 240 105 293 84 l 293 79 q 235 91 201 168 q 167 245 167 362 q 167 615 305 615 q 352 615 392 573 z m 551 231 q 543 110 483 47 q 423 -16 316 -16 q 234 -16 164 34 l 164 38 q 227 -3 315 -3 q 412 -3 473 59 q 502 89 517 127 q 531 165 536 227 l 537 238 z m 569 628 l 563 619 q 510 528 479 453 l 465 459 l 471 472 q 495 523 514 557 l 553 626 l 558 635 z"},"W":{"x_min":0,"x_max":790,"ha":790,"o":"m 845 834 q 777 759 742 685 q 708 611 661 439 l 577 132 l 586 94 l 646 40 l 424 40 l 488 94 l 401 407 l 317 101 l 401 0 l 152 0 l 142 13 l 375 13 l 301 98 l 394 432 l 377 490 l 277 124 l 285 94 l 342 40 l 119 40 l 186 94 l 43 605 l -30 667 l 209 667 l 142 605 l 254 203 l 271 262 l 177 598 l 221 637 l 232 629 l 192 593 l 277 286 l 382 667 l 428 667 l 555 207 l 570 262 l 458 667 l 472 667 l 577 286 l 623 451 q 666 606 666 653 q 666 706 617 735 q 674 753 739 785 q 805 816 837 841 z m 874 797 q 815 732 778 651 q 740 570 700 425 l 614 109 l 708 0 l 457 0 l 446 13 l 678 13 l 599 104 l 688 432 q 729 577 765 656 q 802 734 863 805 z"},"A":{"x_min":0,"x_max":757,"ha":757,"o":"m 472 667 l 421 609 l 501 396 l 521 407 l 449 599 l 500 659 l 513 653 l 464 596 l 532 414 q 538 418 539 419 l 555 433 q 570 445 574 450 q 586 394 613 350 q 599 351 592 351 q 546 351 524 336 l 613 97 l 686 40 l 439 40 l 507 97 l 453 239 q 399 185 370 136 l 359 139 q 388 187 445 246 l 449 251 l 439 272 q 381 224 343 160 l 334 174 q 309 215 270 267 l 265 272 q 227 189 227 137 q 227 106 238 85 q 248 63 288 14 q 292 9 299 0 l 35 0 l 25 13 l 274 13 l 266 23 q 233 62 223 84 q 213 106 213 135 q 213 185 254 284 l 232 306 q 226 291 216 260 l 200 210 q 187 170 187 144 q 187 117 196 99 q 206 81 235 49 q 238 46 244 40 l 0 40 q 70 76 111 137 q 151 198 191 326 l 193 333 q 167 354 119 359 q 146 399 160 443 q 167 437 168 435 l 190 415 q 202 404 217 393 l 226 414 l 220 419 q 196 440 179 454 l 175 457 l 183 468 q 208 451 232 428 l 299 611 l 247 667 z m 352 510 l 298 368 q 302 363 303 362 l 323 340 q 339 322 364 285 l 369 278 q 390 304 418 330 z m 330 566 l 252 361 q 289 323 316 286 l 338 255 q 339 254 343 249 q 348 253 348 254 l 355 262 q 356 264 360 269 q 326 321 281 364 l 343 529 z m 617 426 q 627 382 670 306 q 660 307 658 307 l 619 311 q 592 313 580 313 q 578 313 570 312 l 651 96 l 760 0 l 478 0 l 468 13 l 728 13 l 640 91 l 553 321 q 569 325 591 325 q 617 325 649 321 l 644 332 q 612 389 602 436 z"},"f":{"x_min":0,"x_max":551,"ha":551,"o":"m 31 667 l 538 667 q 507 626 494 604 q 481 581 461 530 l 458 520 q 425 586 394 606 q 362 625 288 625 l 260 625 l 212 625 l 194 626 l 194 397 l 224 397 l 224 599 l 238 600 q 269 601 303 601 q 402 601 427 549 q 403 572 375 580 q 347 588 289 588 q 268 588 236 586 l 236 397 l 310 397 l 388 480 l 388 275 l 306 356 l 194 356 l 194 110 l 257 47 l 17 47 l 97 110 l 97 320 q 59 320 31 292 l 21 302 q 50 333 97 333 l 97 356 q 86 357 82 357 q 37 357 3 320 l 0 328 q 22 392 97 397 l 97 604 z m 575 637 q 505 555 487 487 l 477 494 q 495 571 566 645 z m 424 463 l 424 252 l 411 259 l 411 470 z m 336 315 l 236 315 l 236 106 l 322 0 l 40 0 l 27 13 l 295 13 l 224 101 l 224 329 l 322 329 z"},"Q":{"x_min":0,"x_max":641,"ha":641,"o":"m 382 581 q 378 583 375 583 q 337 601 310 601 q 236 601 204 534 q 172 466 172 313 q 172 138 271 80 l 266 80 q 214 96 187 158 q 160 220 160 323 q 160 476 193 543 q 227 610 304 610 q 350 610 382 584 z m 444 80 q 488 35 550 35 q 583 35 624 54 l 627 52 q 604 20 590 -6 l 554 -71 l 552 -75 q 471 -61 412 12 q 361 -12 311 -12 q 229 -12 181 31 l 183 34 q 248 2 304 2 q 358 2 403 21 q 401 24 400 26 q 393 37 387 43 q 341 26 293 26 q 177 26 100 119 q 23 213 23 354 q 23 499 98 589 q 173 678 295 678 q 414 678 487 590 q 559 501 559 357 q 559 269 534 207 q 509 145 449 84 z m 419 153 q 452 225 452 361 q 452 639 288 639 q 127 639 127 347 q 127 215 171 141 q 216 66 293 66 q 326 66 357 80 q 328 134 280 134 q 277 134 269 133 l 303 175 q 338 165 389 124 l 395 119 q 401 126 409 138 l 411 141 q 378 173 326 191 l 333 203 q 375 187 413 158 z m 458 643 q 526 615 566 536 q 606 458 606 354 q 606 198 515 86 q 543 62 602 58 l 602 55 q 583 52 574 52 q 530 52 495 84 q 593 183 593 355 q 593 543 458 640 z m 664 29 q 625 -22 589 -88 l 586 -93 l 575 -87 q 591 -54 612 -23 l 650 32 l 653 36 z"},"w":{"x_min":0,"x_max":790,"ha":790,"o":"m 845 834 q 777 759 742 685 q 708 611 661 439 l 577 132 l 586 94 l 646 40 l 424 40 l 488 94 l 401 407 l 317 101 l 401 0 l 152 0 l 142 13 l 375 13 l 301 98 l 394 432 l 377 490 l 277 124 l 285 94 l 342 40 l 119 40 l 186 94 l 43 605 l -30 667 l 209 667 l 142 605 l 254 203 l 271 262 l 177 598 l 221 637 l 232 629 l 192 593 l 277 286 l 382 667 l 428 667 l 555 207 l 570 262 l 458 667 l 472 667 l 577 286 l 623 451 q 666 606 666 653 q 666 706 617 735 q 674 753 739 785 q 805 816 837 841 z m 874 797 q 815 732 778 651 q 740 570 700 425 l 614 109 l 708 0 l 457 0 l 446 13 l 678 13 l 599 104 l 688 432 q 729 577 765 656 q 802 734 863 805 z"},"-":{"x_min":0,"x_max":314,"ha":314,"o":"m 244 377 l 265 319 l 21 319 l 0 377 z m 314 284 l 52 284 l 42 298 l 295 298 l 273 365 l 289 354 z"},"E":{"x_min":0,"x_max":622,"ha":622,"o":"m 549 667 l 542 657 q 492 596 462 517 q 458 528 455 534 q 428 592 397 609 q 367 626 287 626 q 250 626 199 624 l 199 399 l 230 399 l 230 598 q 268 602 301 602 q 363 602 393 588 q 422 575 445 537 q 438 542 435 544 q 396 576 378 582 q 360 587 309 587 q 293 587 253 585 l 243 585 l 243 399 l 333 399 l 396 486 l 396 275 l 333 357 l 199 357 l 199 83 l 230 83 l 230 334 l 336 334 l 349 321 l 243 321 l 243 83 q 342 83 384 97 q 426 111 450 153 l 476 197 q 478 200 482 208 q 495 154 513 122 q 532 90 576 47 l 28 47 l 103 104 l 103 321 q 62 316 28 296 l 21 306 q 51 328 103 334 l 103 357 q 94 358 91 358 q 41 358 0 321 q 22 399 103 399 l 103 608 l 28 667 z m 573 632 l 569 628 q 510 548 490 494 l 481 504 q 514 580 566 643 z m 429 470 l 429 254 l 417 260 l 417 476 z m 631 44 l 606 0 l 73 0 l 65 13 l 600 13 l 616 44 q 546 109 517 183 l 533 177 q 560 114 624 52 z"},"s":{"x_min":0,"x_max":555,"ha":555,"o":"m 479 661 q 453 627 438 590 q 408 517 398 500 l 396 497 q 394 502 393 505 q 379 549 371 566 q 362 583 344 599 q 300 639 243 639 q 191 639 156 610 q 122 581 122 537 q 122 455 245 425 l 328 405 q 504 362 504 219 q 504 139 444 84 q 383 30 294 30 q 239 30 170 47 l 113 61 q 78 69 56 69 q 26 69 -6 50 l -10 57 q 51 148 75 231 l 84 229 q 94 152 146 109 q 197 67 280 67 q 345 67 384 97 q 422 127 422 179 q 422 238 369 276 q 330 304 210 327 q 118 345 77 387 q 35 429 35 504 q 35 581 91 629 q 146 677 235 677 q 292 677 368 657 q 404 647 421 647 q 445 647 473 664 z m 509 641 l 504 633 q 484 600 470 569 q 436 497 432 489 l 429 485 l 417 490 l 419 495 q 434 527 460 579 l 494 643 l 496 647 z m 366 543 q 312 601 251 601 q 214 601 189 579 q 165 558 165 524 q 165 488 214 450 l 218 448 l 216 444 q 151 473 151 527 q 151 565 179 589 q 206 613 250 613 q 292 613 323 595 q 355 578 370 545 z m 479 350 q 545 299 545 212 q 545 119 473 54 q 400 -11 297 -11 q 244 -11 202 0 l 124 19 q 96 26 65 26 q 37 26 14 15 l 8 29 q 33 41 60 41 q 89 41 126 32 l 202 14 q 247 3 296 3 q 394 3 463 65 q 531 127 531 216 q 531 291 479 347 z m 131 209 q 149 121 228 84 l 228 81 q 137 107 118 207 z m 70 367 l 86 358 q 103 329 181 310 l 259 291 q 339 271 366 256 q 393 242 404 212 l 400 210 q 378 236 353 248 q 327 259 254 276 q 149 301 113 319 q 77 336 70 367 z"},">":{"x_min":0,"x_max":500,"ha":500,"o":"m 42 68 l 42 118 l 326 300 l 42 492 l 42 623 l 459 341 l 459 333 z"},"l":{"x_min":0,"x_max":547,"ha":547,"o":"m 20 667 l 253 667 l 185 600 l 185 78 l 188 78 l 206 76 l 210 76 l 210 595 l 263 648 l 270 637 l 223 589 l 223 76 q 245 74 265 74 q 342 74 382 109 q 422 143 436 222 q 481 89 530 40 l 20 40 l 87 95 l 87 604 z m 578 44 l 556 0 l 46 0 l 34 13 l 550 13 l 564 44 q 511 110 479 191 l 477 196 l 492 190 l 496 182 q 528 110 574 49 z"},"8":{"x_min":0,"x_max":600,"ha":600,"o":"m 195 387 q 76 438 76 520 q 76 572 107 607 q 139 643 224 688 q 280 717 307 737 l 322 749 q 333 756 332 762 q 332 766 328 767 l 321 771 q 310 775 310 792 q 310 821 336 821 q 350 821 360 807 q 371 793 371 776 q 371 734 283 683 l 224 648 q 154 608 154 555 q 154 525 173 505 q 192 485 242 461 q 284 441 318 432 q 432 465 432 545 q 432 578 406 601 q 380 625 343 625 q 295 625 277 584 q 271 570 264 570 q 249 570 249 594 q 249 623 274 642 q 299 661 336 661 q 394 661 433 627 q 473 593 473 543 q 473 503 448 472 q 422 440 362 408 q 368 405 369 405 l 392 395 q 393 395 397 393 q 500 443 500 531 q 500 555 493 571 q 485 587 459 623 q 458 624 455 628 q 512 592 512 525 q 512 484 483 446 q 455 407 409 387 q 467 355 499 306 q 531 256 531 199 q 531 118 466 67 q 401 16 297 16 q 182 16 108 70 q 35 123 35 207 q 35 263 71 305 q 106 347 186 383 z m 291 344 q 163 294 163 203 q 163 133 229 78 l 229 74 q 192 94 171 130 q 150 165 150 205 q 150 306 277 349 l 229 365 q 117 310 117 209 q 117 137 169 94 q 220 50 307 50 q 375 50 414 84 q 454 118 454 176 q 454 230 417 270 q 380 309 300 340 z m 376 814 q 401 791 401 765 q 401 716 332 672 l 327 669 l 308 669 q 388 717 388 764 q 388 784 371 810 z m 490 342 q 524 325 546 283 q 568 242 568 195 q 568 98 495 39 q 422 -21 303 -21 q 188 -21 119 39 l 119 42 l 126 37 q 165 12 204 2 q 244 -8 302 -8 q 417 -8 486 48 q 556 104 556 198 q 556 261 518 308 l 495 336 q 494 336 490 342 z m 417 558 q 390 587 357 587 q 318 587 298 558 l 291 558 q 312 600 357 600 q 401 600 422 558 z m 241 612 q 194 580 194 544 q 194 511 217 492 l 214 488 q 182 516 182 550 q 182 588 241 628 z"},"\\":{"x_min":0,"x_max":517,"ha":517,"o":"m -8 750 l 468 -48 l 422 -48 l -54 750 z m 455 -77 l 507 -77 l 22 736 l 43 726 l 530 -90 l 477 -90 z"},"e":{"x_min":0,"x_max":622,"ha":622,"o":"m 549 667 l 542 657 q 492 596 462 517 q 458 528 455 534 q 428 592 397 609 q 367 626 287 626 q 250 626 199 624 l 199 399 l 230 399 l 230 598 q 268 602 301 602 q 363 602 393 588 q 422 575 445 537 q 438 542 435 544 q 396 576 378 582 q 360 587 309 587 q 293 587 253 585 l 243 585 l 243 399 l 333 399 l 396 486 l 396 275 l 333 357 l 199 357 l 199 83 l 230 83 l 230 334 l 336 334 l 349 321 l 243 321 l 243 83 q 342 83 384 97 q 426 111 450 153 l 476 197 q 478 200 482 208 q 495 154 513 122 q 532 90 576 47 l 28 47 l 103 104 l 103 321 q 62 316 28 296 l 21 306 q 51 328 103 334 l 103 357 q 94 358 91 358 q 41 358 0 321 q 22 399 103 399 l 103 608 l 28 667 z m 573 632 l 569 628 q 510 548 490 494 l 481 504 q 514 580 566 643 z m 429 470 l 429 254 l 417 260 l 417 476 z m 631 44 l 606 0 l 73 0 l 65 13 l 600 13 l 616 44 q 546 109 517 183 l 533 177 q 560 114 624 52 z"},"b":{"x_min":0,"x_max":646,"ha":646,"o":"m 33 600 q 149 677 293 677 q 398 677 465 630 q 531 583 531 508 q 531 408 416 375 l 416 369 q 428 366 444 361 q 499 374 530 413 q 561 452 561 507 q 561 577 503 630 l 503 633 l 509 629 q 573 580 573 502 q 573 396 462 354 q 510 332 537 292 q 563 251 563 200 q 563 127 511 84 q 458 40 370 40 l 21 40 l 88 98 l 88 309 q 59 309 21 303 l 17 317 q 60 322 88 322 l 88 348 l 76 348 q 48 348 7 344 l 28 391 l 36 390 q 55 389 65 389 q 80 389 88 387 l 88 571 z m 186 607 l 186 387 q 191 388 193 388 l 202 387 q 204 387 210 387 l 210 587 q 252 606 292 606 q 338 606 365 590 q 391 573 410 533 l 396 541 q 359 596 292 596 q 253 596 223 575 l 223 387 l 244 387 q 337 387 383 418 q 428 449 428 513 q 428 569 390 604 q 353 638 291 638 q 237 638 186 607 z m 186 347 l 186 78 l 210 78 l 210 318 q 245 320 260 320 q 341 320 377 305 q 414 290 435 248 l 429 248 q 405 281 369 294 q 333 307 263 307 l 223 306 l 223 78 l 239 78 l 310 81 q 447 90 447 214 q 447 292 402 321 q 356 349 232 349 q 220 349 186 347 z m 551 313 q 604 272 604 190 q 604 107 545 53 q 489 0 379 0 l 47 0 l 39 13 l 347 13 q 447 13 492 34 q 590 80 590 193 q 590 257 545 309 z"},"%":{"x_min":0,"x_max":626,"ha":626,"o":"m 497 666 l 147 36 l 104 36 l 453 666 z m 516 654 l 523 641 l 171 -1 l 125 -1 l 117 12 l 165 12 z m 182 610 q 169 620 157 620 q 132 620 123 599 q 113 578 113 522 q 113 432 146 397 l 140 397 q 118 415 109 442 q 101 469 101 523 q 101 585 112 608 q 123 631 153 631 q 173 631 186 610 z m 143 686 q 200 686 236 637 q 271 589 271 511 q 271 435 239 393 q 206 351 147 351 q 86 351 51 397 q 17 442 17 522 q 17 597 51 641 q 85 686 143 686 z m 144 646 q 109 646 94 617 q 79 587 79 519 q 79 385 147 385 q 210 385 210 516 q 210 646 144 646 z m 232 663 l 239 663 q 273 640 292 599 q 312 559 312 508 q 312 429 275 380 q 238 330 180 330 q 156 330 139 342 l 146 342 q 159 337 171 337 q 227 337 263 385 q 299 434 299 507 q 299 599 232 663 z m 483 260 q 470 270 458 270 q 416 270 416 216 l 414 155 l 416 131 q 421 74 447 47 l 441 47 q 418 66 410 92 q 401 119 401 173 q 401 235 413 258 q 424 281 454 281 q 474 281 487 260 z m 443 336 q 500 336 536 288 q 572 239 572 162 q 572 85 540 43 q 507 1 448 1 q 387 1 352 47 q 317 93 317 173 q 317 247 352 292 q 386 336 443 336 z m 444 297 q 410 297 395 267 q 379 238 379 169 q 379 36 448 36 q 511 36 511 166 q 511 297 444 297 z m 533 313 l 540 313 q 574 291 593 250 q 612 209 612 158 q 612 80 576 30 q 539 -20 480 -20 q 456 -20 439 -8 l 447 -8 q 459 -12 473 -12 q 528 -12 564 36 q 601 83 601 157 q 601 248 533 313 z"},"m":{"x_min":0,"x_max":731,"ha":731,"o":"m 678 667 l 611 599 l 611 97 l 671 40 l 446 40 l 514 97 l 514 426 l 359 0 l 312 0 l 309 13 l 351 13 l 514 467 l 514 542 l 333 41 l 298 41 l 165 435 l 165 176 q 165 125 171 103 q 178 82 204 56 l 248 0 l -8 0 l -17 13 l 223 13 l 205 40 l -13 40 l -2 45 q 52 75 69 106 q 86 136 86 202 l 86 606 l 22 667 l 274 667 l 204 603 l 342 194 l 359 236 l 234 599 l 298 646 l 309 638 l 248 595 l 364 254 l 490 603 l 430 667 z m 125 551 l 125 200 q 125 120 140 89 q 156 59 204 45 l 200 53 q 152 86 152 148 l 152 185 l 152 473 z m 705 628 l 650 589 l 650 97 l 735 0 l 476 0 l 469 13 l 705 13 l 637 90 l 637 597 l 695 637 z"},"#":{"x_min":0,"x_max":586,"ha":586,"o":"m 316 229 l 250 229 l 218 0 l 155 0 l 146 11 l 206 11 l 239 243 l 318 243 l 322 271 l 214 271 l 182 40 l 118 40 l 145 229 l 48 229 l 43 243 l 146 243 l 150 271 l 31 271 l 31 312 l 156 312 l 165 373 l 69 373 l 64 386 l 167 386 l 170 414 l 54 414 l 54 456 l 176 456 l 206 667 l 270 667 l 240 456 l 269 456 l 295 646 l 308 642 l 282 456 l 348 456 l 377 667 l 440 667 l 410 456 l 439 456 l 466 646 l 479 642 l 453 456 l 520 456 l 520 414 l 404 414 l 390 312 l 418 312 l 429 386 l 547 386 l 545 447 l 555 436 l 556 373 l 441 373 l 432 312 l 498 312 l 498 271 l 384 271 l 352 40 l 290 40 z m 336 373 l 271 373 l 262 312 l 328 312 z m 342 414 l 234 414 l 220 312 l 248 312 l 259 386 l 338 386 z m 389 0 l 325 0 l 316 11 l 376 11 l 409 243 l 527 243 l 525 304 l 535 293 l 536 229 l 421 229 z"},",":{"x_min":0,"x_max":262,"ha":262,"o":"m 150 148 q 165 114 165 82 q 165 -40 21 -87 l 17 -80 l 21 -76 q 72 -34 72 25 q 72 67 46 98 q 52 100 55 101 q 108 121 150 148 z m 199 134 q 207 104 207 80 q 207 -59 45 -121 l 39 -107 l 47 -104 q 130 -71 162 -23 q 194 25 194 76 q 194 101 185 140 z"},"n":{"x_min":0,"x_max":601,"ha":601,"o":"m 577 667 q 521 638 505 614 q 481 577 481 502 l 481 470 l 481 40 l 398 40 l 168 487 l 168 222 l 167 200 l 173 130 q 183 81 218 58 l 222 54 q 154 77 154 198 l 155 244 l 155 511 l 128 562 l 128 281 q 128 147 146 106 q 164 64 229 45 l 271 0 l 6 0 l -1 13 l 243 13 l 218 40 l -10 40 q 50 62 69 98 q 89 134 89 222 l 89 612 l 24 667 l 271 667 l 202 620 l 438 159 l 438 218 l 235 612 l 304 659 l 313 649 l 252 608 l 438 244 l 438 472 l 438 498 q 438 583 424 612 q 410 640 355 667 z m 594 630 l 585 616 q 548 607 534 583 q 521 560 521 503 l 521 0 l 416 0 l 410 13 l 508 13 l 508 499 q 508 567 526 594 q 543 622 594 630 z"},"h":{"x_min":0,"x_max":628,"ha":628,"o":"m 32 667 l 261 667 l 195 602 l 195 391 q 206 389 221 388 l 221 597 l 274 649 l 284 641 l 234 591 l 234 387 l 250 386 q 288 382 323 382 q 374 382 410 387 l 410 612 l 351 667 l 576 667 l 509 602 l 509 93 l 568 40 l 343 40 l 410 97 l 410 304 q 369 294 326 294 q 285 294 241 299 l 234 299 l 234 93 l 314 0 l 62 0 l 49 13 l 288 13 l 221 86 l 221 311 l 235 310 q 300 305 329 305 q 375 305 410 317 l 410 335 q 364 328 303 328 q 271 328 255 330 l 206 334 q 203 334 195 335 l 195 93 l 257 40 l 32 40 l 97 97 l 97 311 q 56 311 32 278 l 21 283 q 50 319 97 323 l 97 341 q 42 341 11 299 l 3 304 q 32 375 97 387 l 97 607 z m 597 639 l 547 591 l 547 93 l 628 0 l 375 0 l 362 13 l 600 13 l 535 87 l 535 596 l 589 649 z"},"z":{"x_min":0,"x_max":641,"ha":641,"o":"m 553 667 l 161 82 l 192 82 l 576 656 l 584 644 l 208 82 l 257 82 l 296 83 l 316 83 q 356 83 392 98 q 428 113 446 137 q 469 167 485 204 q 526 97 572 40 l 17 40 l 378 583 l 369 584 l 306 585 q 217 585 184 566 q 150 546 135 486 l 125 498 q 134 539 165 566 q 185 585 213 591 q 241 597 305 597 q 345 597 379 596 l 387 595 l 406 623 q 372 625 338 625 q 237 625 199 617 q 162 608 134 579 q 112 556 99 517 l 95 525 q 70 581 25 661 l 22 667 z m 624 44 l 599 0 l 42 0 l 31 13 l 591 13 l 609 44 q 553 112 521 199 l 537 193 q 562 119 620 48 z"},"B":{"x_min":0,"x_max":646,"ha":646,"o":"m 33 600 q 149 677 293 677 q 398 677 465 630 q 531 583 531 508 q 531 408 416 375 l 416 369 q 428 366 444 361 q 499 374 530 413 q 561 452 561 507 q 561 577 503 630 l 503 633 l 509 629 q 573 580 573 502 q 573 396 462 354 q 510 332 537 292 q 563 251 563 200 q 563 127 511 84 q 458 40 370 40 l 21 40 l 88 98 l 88 309 q 59 309 21 303 l 17 317 q 60 322 88 322 l 88 348 l 76 348 q 48 348 7 344 l 28 391 l 36 390 q 55 389 65 389 q 80 389 88 387 l 88 571 z m 186 607 l 186 387 q 191 388 193 388 l 202 387 q 204 387 210 387 l 210 587 q 252 606 292 606 q 338 606 365 590 q 391 573 410 533 l 396 541 q 359 596 292 596 q 253 596 223 575 l 223 387 l 244 387 q 337 387 383 418 q 428 449 428 513 q 428 569 390 604 q 353 638 291 638 q 237 638 186 607 z m 186 347 l 186 78 l 210 78 l 210 318 q 245 320 260 320 q 341 320 377 305 q 414 290 435 248 l 429 248 q 405 281 369 294 q 333 307 263 307 l 223 306 l 223 78 l 239 78 l 310 81 q 447 90 447 214 q 447 292 402 321 q 356 349 232 349 q 220 349 186 347 z m 551 313 q 604 272 604 190 q 604 107 545 53 q 489 0 379 0 l 47 0 l 39 13 l 347 13 q 447 13 492 34 q 590 80 590 193 q 590 257 545 309 z"},"K":{"x_min":0,"x_max":677,"ha":677,"o":"m 24 667 l 252 667 l 185 602 l 185 307 l 211 338 l 211 598 l 266 651 l 273 641 l 223 592 l 223 353 l 375 534 q 407 573 407 604 q 407 623 389 639 q 370 656 344 662 l 344 667 l 601 667 l 601 662 q 517 641 419 524 l 351 443 l 531 93 l 613 40 l 360 40 l 424 88 l 303 330 l 223 233 l 223 93 l 303 0 l 52 0 l 39 13 l 273 13 l 211 88 l 211 239 l 296 344 l 286 365 l 185 245 l 185 93 l 244 40 l 20 40 l 87 97 l 87 608 z m 625 622 q 553 617 481 538 l 396 443 l 568 93 l 707 0 l 396 0 l 382 13 l 665 13 l 561 84 l 382 443 l 473 545 q 544 625 620 632 z"},"R":{"x_min":0,"x_max":635,"ha":635,"o":"m 43 608 q 159 675 292 675 q 396 675 463 630 q 530 585 530 516 q 530 459 486 415 q 442 372 366 352 q 399 259 457 171 q 515 83 573 37 l 566 34 q 493 9 423 -36 l 416 -41 l 414 -25 q 382 164 326 295 l 324 300 q 291 284 234 275 l 230 274 l 230 92 l 316 0 l 63 0 l 56 13 l 288 13 l 217 88 l 217 285 l 228 287 q 283 292 321 309 q 318 314 317 316 l 312 330 q 312 332 310 336 q 280 327 196 317 l 190 316 l 190 98 l 246 40 l 30 40 l 94 98 l 94 262 l 90 262 q 62 255 39 248 l 35 246 l 30 256 q 52 264 64 267 l 90 273 l 94 274 l 94 300 q 65 300 22 287 l 17 285 q 18 292 26 317 q 27 319 33 339 q 34 340 35 343 q 57 342 69 342 q 82 342 93 343 l 93 583 q 71 597 47 606 z m 190 621 l 190 357 q 205 357 217 360 l 217 600 q 244 607 282 607 q 377 607 411 545 q 375 574 348 585 q 320 596 282 596 q 252 596 230 590 l 230 360 l 235 361 q 332 378 378 416 q 425 454 425 515 q 425 569 383 604 q 341 640 277 640 q 226 640 190 621 z m 426 328 q 457 227 535 131 q 584 71 659 23 q 547 -7 449 -68 l 444 -71 l 435 -63 q 528 -2 633 27 q 493 121 412 327 l 409 335 q 559 392 559 508 q 559 556 520 612 q 569 567 569 498 q 569 386 426 328 z"},"T":{"x_min":0,"x_max":579,"ha":579,"o":"m 564 667 q 560 658 559 655 l 525 597 q 508 565 494 519 l 493 516 l 488 520 l 486 526 q 472 582 446 603 q 420 625 366 625 q 344 625 322 623 l 316 623 l 316 93 l 374 40 l 151 40 l 219 97 l 219 583 l 185 583 q 134 583 113 564 q 92 544 88 494 l 75 494 q 81 551 105 574 q 129 596 185 596 l 214 596 l 219 596 l 219 620 q 194 623 172 623 q 109 623 81 597 q 53 571 50 510 l 44 510 q 23 578 -21 662 l -23 667 z m 595 636 q 562 593 524 493 l 522 488 l 512 498 l 513 502 q 549 603 583 643 l 585 646 z m 465 560 q 427 584 377 584 q 366 584 354 583 l 355 92 l 433 0 l 184 0 l 172 13 l 406 13 l 341 88 l 341 597 l 367 597 q 415 597 434 590 q 454 582 465 560 z"},"P":{"x_min":0,"x_max":591,"ha":591,"o":"m 47 667 l 267 667 q 406 667 465 628 q 541 580 541 494 q 541 441 512 403 q 483 364 431 347 q 379 330 267 330 l 207 330 l 207 94 l 266 40 l 39 40 l 107 97 l 107 293 q 101 293 99 293 q 63 293 31 278 l 27 287 q 60 306 85 306 l 103 306 l 107 306 l 107 330 q 96 332 92 332 q 40 332 8 306 l 3 313 q 33 368 99 368 l 107 368 l 107 607 z m 207 616 l 207 372 l 213 372 l 226 371 q 228 371 232 372 l 232 589 l 286 589 q 348 589 374 578 q 399 567 417 533 q 399 558 372 568 q 345 578 296 578 l 246 578 l 246 372 q 342 372 387 400 q 433 428 433 489 q 433 557 392 587 q 352 618 263 618 q 240 618 207 616 z m 516 614 q 545 600 563 563 q 582 526 582 479 q 582 373 500 327 q 438 292 288 292 q 263 292 246 292 l 246 91 l 322 0 l 78 0 l 64 13 l 294 13 l 232 85 l 232 306 q 274 303 322 303 q 448 303 509 348 q 570 392 570 484 q 570 522 559 550 q 547 578 516 614 z"},"|":{"x_min":0,"x_max":500,"ha":500,"o":"m 213 667 l 288 667 l 288 -167 l 213 -167 z"},"t":{"x_min":0,"x_max":579,"ha":579,"o":"m 564 667 q 560 658 559 655 l 525 597 q 508 565 494 519 l 493 516 l 488 520 l 486 526 q 472 582 446 603 q 420 625 366 625 q 344 625 322 623 l 316 623 l 316 93 l 374 40 l 151 40 l 219 97 l 219 583 l 185 583 q 134 583 113 564 q 92 544 88 494 l 75 494 q 81 551 105 574 q 129 596 185 596 l 214 596 l 219 596 l 219 620 q 194 623 172 623 q 109 623 81 597 q 53 571 50 510 l 44 510 q 23 578 -21 662 l -23 667 z m 595 636 q 562 593 524 493 l 522 488 l 512 498 l 513 502 q 549 603 583 643 l 585 646 z m 465 560 q 427 584 377 584 q 366 584 354 583 l 355 92 l 433 0 l 184 0 l 172 13 l 406 13 l 341 88 l 341 597 l 367 597 q 415 597 434 590 q 454 582 465 560 z"},"M":{"x_min":0,"x_max":731,"ha":731,"o":"m 678 667 l 611 599 l 611 97 l 671 40 l 446 40 l 514 97 l 514 426 l 359 0 l 312 0 l 309 13 l 351 13 l 514 467 l 514 542 l 333 41 l 298 41 l 165 435 l 165 176 q 165 125 171 103 q 178 82 204 56 l 248 0 l -8 0 l -17 13 l 223 13 l 205 40 l -13 40 l -2 45 q 52 75 69 106 q 86 136 86 202 l 86 606 l 22 667 l 274 667 l 204 603 l 342 194 l 359 236 l 234 599 l 298 646 l 309 638 l 248 595 l 364 254 l 490 603 l 430 667 z m 125 551 l 125 200 q 125 120 140 89 q 156 59 204 45 l 200 53 q 152 86 152 148 l 152 185 l 152 473 z m 705 628 l 650 589 l 650 97 l 735 0 l 476 0 l 469 13 l 705 13 l 637 90 l 637 597 l 695 637 z"},"g":{"x_min":0,"x_max":682,"ha":682,"o":"m 572 649 l 481 470 q 472 546 433 587 q 394 627 329 627 q 237 627 186 556 q 135 485 135 356 q 135 74 367 74 l 445 74 l 445 327 l 322 327 q 282 327 265 332 q 248 336 231 351 l 231 363 q 249 350 267 345 q 284 341 324 341 l 445 341 l 445 368 l 310 368 l 288 368 q 215 368 215 420 q 215 441 227 456 q 239 470 256 470 q 269 470 279 461 q 288 452 288 439 q 288 417 272 414 l 261 412 q 255 410 255 407 q 255 400 271 400 l 288 400 l 610 400 l 542 334 l 542 94 l 605 40 l 355 40 l 306 40 q 244 40 204 55 q 163 70 122 109 q 23 199 23 350 q 23 505 116 593 q 197 669 309 669 q 358 669 423 652 q 489 634 510 634 q 541 634 572 649 z m 602 619 l 518 455 l 506 460 l 590 625 z m 445 544 l 437 551 q 381 590 335 590 q 279 590 239 551 q 209 521 197 474 q 184 427 184 349 q 184 250 203 198 q 223 146 275 104 l 275 99 q 218 132 193 194 q 168 255 168 360 q 168 476 212 540 q 255 604 334 604 q 402 604 445 547 z m 631 373 l 581 322 l 581 93 l 662 0 l 468 1 l 292 0 q 275 0 267 0 q 236 4 205 27 l 215 27 q 248 13 306 13 l 330 13 l 634 13 l 567 88 l 567 327 l 623 384 z"},"j":{"x_min":0,"x_max":513,"ha":513,"o":"m 467 667 l 401 601 l 401 238 l 401 222 q 401 186 425 172 q 419 108 363 68 q 307 28 224 28 q 70 28 26 148 l 19 167 q 14 181 7 186 q 0 191 -20 195 l 126 304 q 118 256 118 207 q 118 141 144 102 q 170 62 215 62 q 303 62 303 203 l 303 606 l 237 667 z m 487 639 l 439 590 l 439 233 l 439 214 l 446 185 q 452 172 473 159 q 466 117 431 74 q 360 -15 232 -15 q 134 -15 76 42 l 76 45 q 112 18 145 7 q 177 -3 225 -3 q 310 -3 376 42 q 443 87 458 154 q 436 172 431 185 q 426 198 426 236 l 426 596 l 479 649 z m 171 292 l 170 286 q 161 231 161 206 q 161 111 232 77 l 225 77 q 148 100 148 198 q 148 248 159 292 z"},"i":{"x_min":0,"x_max":306,"ha":306,"o":"m 20 667 l 251 667 l 186 600 l 186 92 l 248 40 l 20 40 l 88 96 l 88 605 z m 273 639 l 224 589 l 224 92 l 306 0 l 52 0 l 40 13 l 277 13 l 210 87 l 210 594 l 265 648 z"},"y":{"x_min":0,"x_max":642,"ha":642,"o":"m 703 838 l 706 834 l 701 829 q 613 738 557 645 q 535 609 525 594 l 344 303 l 344 105 l 415 40 l 177 40 l 247 105 l 247 303 l 130 483 l 104 524 q 70 578 48 603 q 25 628 -18 662 l -23 667 l 223 667 l 163 604 l 325 358 l 341 383 l 196 604 l 247 652 l 257 645 l 213 604 l 348 395 l 458 567 q 505 643 505 680 q 505 711 463 751 q 605 785 697 835 z m 725 809 l 725 789 l 720 784 q 679 745 649 706 q 620 667 562 575 l 385 296 l 385 105 l 472 0 l 166 0 l 160 13 l 446 13 l 372 105 l 372 300 l 552 584 l 580 629 q 656 750 725 809 z"},"@":{"x_min":0,"x_max":720,"ha":720,"o":"m 413 192 q 363 145 312 145 q 267 145 235 182 l 235 184 q 265 156 313 156 q 358 156 402 198 l 409 206 q 440 157 490 157 q 565 157 621 233 q 678 309 678 411 q 678 493 637 555 q 596 616 520 649 l 521 655 q 602 626 647 562 q 693 497 693 411 q 693 304 633 224 q 573 143 494 143 q 444 143 413 192 z m 185 54 l 185 58 q 249 2 360 2 q 435 2 490 23 q 545 44 591 91 l 600 83 q 566 39 503 14 q 439 -10 360 -10 q 302 -10 263 4 q 224 19 185 54 z m 395 487 q 384 497 375 497 q 337 497 314 447 q 292 397 292 318 q 292 238 321 220 l 321 217 q 279 228 279 324 q 279 405 306 456 q 332 506 375 506 q 388 506 398 490 z m 519 525 l 530 512 l 504 302 q 502 287 502 279 q 502 250 519 233 q 558 252 580 302 q 603 352 603 417 q 603 511 533 578 q 462 644 362 644 q 247 644 164 554 q 82 465 82 339 q 82 222 158 143 q 235 63 349 63 q 448 63 533 125 q 547 135 558 136 q 568 137 568 126 q 567 110 534 88 q 450 32 341 32 q 208 32 116 123 q 23 215 23 347 q 23 508 155 607 q 246 676 353 676 q 479 676 562 602 q 646 527 646 416 q 646 325 596 257 q 546 188 479 188 q 415 188 410 255 q 368 185 303 185 q 248 185 214 226 q 181 268 181 337 q 181 426 234 489 q 288 553 362 553 q 393 553 430 538 q 449 530 461 530 q 477 530 488 538 l 495 534 l 469 335 l 465 292 q 463 277 463 270 q 463 251 472 239 q 481 228 496 228 q 501 228 511 230 q 489 246 489 277 q 489 284 491 304 z m 407 347 l 415 420 q 416 423 416 430 q 416 474 399 501 q 382 527 354 527 q 310 527 282 471 q 254 415 254 325 q 254 271 270 241 q 287 210 316 210 q 351 210 375 246 q 399 282 407 347 z m 493 587 l 482 590 q 426 605 380 605 q 270 605 196 525 q 123 445 123 325 q 123 249 157 189 q 192 130 254 102 l 250 96 q 109 163 109 325 q 109 451 187 534 q 264 618 380 618 q 458 618 493 587 z"},".":{"x_min":0,"x_max":267,"ha":267,"o":"m 111 159 q 138 159 156 141 q 175 122 175 96 q 175 70 156 51 q 138 33 111 33 q 85 33 67 51 q 48 70 48 96 q 48 122 67 141 q 85 159 111 159 z m 191 139 q 218 114 218 76 q 218 43 194 18 q 169 -7 136 -7 q 97 -7 72 22 l 76 26 q 107 7 132 7 q 163 7 185 29 q 207 50 207 79 q 207 107 187 135 z"},"p":{"x_min":0,"x_max":591,"ha":591,"o":"m 47 667 l 267 667 q 406 667 465 628 q 541 580 541 494 q 541 441 512 403 q 483 364 431 347 q 379 330 267 330 l 207 330 l 207 94 l 266 40 l 39 40 l 107 97 l 107 293 q 101 293 99 293 q 63 293 31 278 l 27 287 q 60 306 85 306 l 103 306 l 107 306 l 107 330 q 96 332 92 332 q 40 332 8 306 l 3 313 q 33 368 99 368 l 107 368 l 107 607 z m 207 616 l 207 372 l 213 372 l 226 371 q 228 371 232 372 l 232 589 l 286 589 q 348 589 374 578 q 399 567 417 533 q 399 558 372 568 q 345 578 296 578 l 246 578 l 246 372 q 342 372 387 400 q 433 428 433 489 q 433 557 392 587 q 352 618 263 618 q 240 618 207 616 z m 516 614 q 545 600 563 563 q 582 526 582 479 q 582 373 500 327 q 438 292 288 292 q 263 292 246 292 l 246 91 l 322 0 l 78 0 l 64 13 l 294 13 l 232 85 l 232 306 q 274 303 322 303 q 448 303 509 348 q 570 392 570 484 q 570 522 559 550 q 547 578 516 614 z"},"X":{"x_min":0,"x_max":698,"ha":698,"o":"m 623 667 l 515 596 l 359 397 l 538 104 l 623 40 l 371 40 l 433 100 l 321 282 l 184 104 l 264 0 l -3 0 l -11 13 l 238 13 l 168 104 l 314 294 l 301 315 l 141 113 l 201 40 l -23 40 l 91 113 l 280 353 l 127 601 l 35 667 l 292 667 l 229 611 l 337 433 l 355 456 l 264 601 l 318 653 l 327 645 l 280 601 l 363 465 l 469 601 l 408 667 z m 640 629 l 545 573 l 407 394 l 575 116 l 694 0 l 391 0 l 382 13 l 663 13 l 564 109 l 391 394 l 536 582 l 633 639 z"},"*":{"x_min":0,"x_max":350,"ha":350,"o":"m 177 504 q 150 471 146 404 l 145 397 l 135 410 q 139 476 171 513 q 167 520 162 527 q 118 468 118 416 l 46 468 q 85 478 124 522 q 102 523 88 523 q 75 523 53 521 l 38 531 q 56 534 65 534 q 91 534 126 525 q 134 534 140 542 q 101 555 65 555 q 42 555 20 549 l 47 633 q 74 591 146 567 q 146 637 116 683 l 205 683 q 173 644 173 568 q 185 572 198 578 q 208 628 229 659 l 232 641 q 216 615 202 580 q 250 603 274 633 l 301 549 q 280 557 256 557 q 224 557 182 544 q 223 487 275 468 l 203 416 q 204 421 204 425 q 204 458 177 504 z m 238 520 q 277 483 324 470 l 239 402 l 224 403 l 304 466 q 258 480 210 527 q 242 540 275 540 q 299 540 320 534 l 296 614 l 310 606 l 333 520 q 310 527 285 527 q 260 527 238 520 z"},"Y":{"x_min":0,"x_max":642,"ha":642,"o":"m 703 838 l 706 834 l 701 829 q 613 738 557 645 q 535 609 525 594 l 344 303 l 344 105 l 415 40 l 177 40 l 247 105 l 247 303 l 130 483 l 104 524 q 70 578 48 603 q 25 628 -18 662 l -23 667 l 223 667 l 163 604 l 325 358 l 341 383 l 196 604 l 247 652 l 257 645 l 213 604 l 348 395 l 458 567 q 505 643 505 680 q 505 711 463 751 q 605 785 697 835 z m 725 809 l 725 789 l 720 784 q 679 745 649 706 q 620 667 562 575 l 385 296 l 385 105 l 472 0 l 166 0 l 160 13 l 446 13 l 372 105 l 372 300 l 552 584 l 580 629 q 656 750 725 809 z"},"c":{"x_min":0,"x_max":582,"ha":582,"o":"m 533 651 l 528 642 q 484 565 452 489 l 447 478 l 441 481 q 430 555 389 599 q 348 642 290 642 q 228 642 186 588 q 134 521 134 359 q 134 221 182 142 q 230 63 315 63 q 384 63 425 109 q 465 155 473 240 q 475 260 490 260 q 509 260 509 229 q 509 181 487 130 q 442 23 300 23 q 173 23 98 112 q 23 201 23 353 q 23 493 101 588 q 179 683 294 683 q 349 683 418 656 q 455 642 479 642 q 505 642 525 656 z m 392 567 q 347 603 308 603 q 181 603 181 361 q 181 251 210 178 q 240 105 293 84 l 293 79 q 235 91 201 168 q 167 245 167 362 q 167 615 305 615 q 352 615 392 573 z m 551 231 q 543 110 483 47 q 423 -16 316 -16 q 234 -16 164 34 l 164 38 q 227 -3 315 -3 q 412 -3 473 59 q 502 89 517 127 q 531 165 536 227 l 537 238 z m 569 628 l 563 619 q 510 528 479 453 l 465 459 l 471 472 q 495 523 514 557 l 553 626 l 558 635 z"},"!":{"x_min":0,"x_max":323,"ha":323,"o":"m 137 653 q 150 600 170 573 q 191 545 235 525 l 229 517 q 184 445 165 380 q 146 316 142 212 l 142 205 l 125 205 l 125 214 q 125 302 98 391 q 70 480 27 532 q 74 553 96 577 q 118 602 137 653 z m 297 532 l 291 525 q 232 449 208 380 q 184 310 177 197 l 176 192 l 162 192 q 162 282 193 375 q 223 467 273 528 q 187 578 167 633 l 183 626 q 218 572 297 532 z m 138 159 q 164 159 183 141 q 201 122 201 96 q 201 70 183 51 q 164 33 138 33 q 112 33 93 51 q 75 70 75 96 q 75 122 93 141 q 112 159 138 159 z m 218 139 q 245 114 245 76 q 245 43 220 18 q 195 -7 163 -7 q 123 -7 99 22 l 102 26 q 133 7 159 7 q 189 7 211 29 q 233 50 233 79 q 233 107 213 135 z"},"/":{"x_min":0,"x_max":480,"ha":480,"o":"m 502 750 l 22 -48 l -23 -48 l 457 750 z m -15 -77 l 37 -77 l 526 736 l 535 726 l 44 -90 l -9 -90 z"},"[":{"x_min":0,"x_max":438,"ha":438,"o":"m 100 747 l 325 747 l 325 699 l 209 699 l 209 1 l 237 1 l 237 672 l 353 672 l 353 720 l 364 707 l 364 659 l 251 659 l 251 1 l 325 1 l 325 -47 l 100 -47 z m 353 -25 l 364 -38 l 364 -86 l 125 -86 l 117 -73 l 353 -73 z"},"6":{"x_min":0,"x_max":600,"ha":600,"o":"m 392 512 q 392 517 392 520 q 382 642 285 642 q 254 642 225 623 q 195 604 177 573 q 136 502 136 327 q 136 186 171 127 q 209 63 275 63 q 333 63 370 119 q 408 174 408 258 q 408 337 377 382 q 346 427 292 427 q 250 427 224 400 q 197 374 188 324 q 185 299 171 299 q 149 299 149 327 q 149 388 195 429 q 240 471 306 471 q 391 471 443 411 q 496 351 496 252 q 496 151 437 88 q 378 26 284 26 q 175 26 112 107 q 80 149 61 216 q 41 282 41 349 q 41 493 114 587 q 187 682 297 682 q 361 682 410 651 q 459 620 485 563 l 480 562 l 454 549 q 413 527 392 512 z m 380 551 l 376 554 l 356 574 q 330 601 293 601 q 252 601 224 566 q 200 536 184 443 l 183 439 l 170 423 q 186 613 292 613 q 323 613 348 595 q 373 578 380 551 z m 434 655 q 464 642 496 609 q 529 576 546 541 l 540 538 q 488 518 482 516 l 419 486 l 416 484 l 410 494 q 462 525 529 547 q 501 601 434 651 z m 389 300 q 346 384 294 384 q 244 384 226 309 q 214 261 187 261 q 185 261 182 262 q 181 254 181 252 q 181 119 291 81 l 295 79 l 295 76 q 241 76 205 128 q 169 180 169 257 q 169 262 170 275 q 176 274 185 274 q 203 274 209 297 l 214 312 q 239 396 296 396 q 329 396 356 369 q 383 342 393 300 z m 481 399 q 504 384 521 336 q 539 288 539 242 q 539 126 459 51 q 391 -15 304 -15 q 234 -15 174 33 l 170 37 l 170 40 q 243 -1 304 -1 q 385 -1 450 61 q 525 132 525 239 q 525 316 484 394 z"},"r":{"x_min":0,"x_max":635,"ha":635,"o":"m 43 608 q 159 675 292 675 q 396 675 463 630 q 530 585 530 516 q 530 459 486 415 q 442 372 366 352 q 399 259 457 171 q 515 83 573 37 l 566 34 q 493 9 423 -36 l 416 -41 l 414 -25 q 382 164 326 295 l 324 300 q 291 284 234 275 l 230 274 l 230 92 l 316 0 l 63 0 l 56 13 l 288 13 l 217 88 l 217 285 l 228 287 q 283 292 321 309 q 318 314 317 316 l 312 330 q 312 332 310 336 q 280 327 196 317 l 190 316 l 190 98 l 246 40 l 30 40 l 94 98 l 94 262 l 90 262 q 62 255 39 248 l 35 246 l 30 256 q 52 264 64 267 l 90 273 l 94 274 l 94 300 q 65 300 22 287 l 17 285 q 18 292 26 317 q 27 319 33 339 q 34 340 35 343 q 57 342 69 342 q 82 342 93 343 l 93 583 q 71 597 47 606 z m 190 621 l 190 357 q 205 357 217 360 l 217 600 q 244 607 282 607 q 377 607 411 545 q 375 574 348 585 q 320 596 282 596 q 252 596 230 590 l 230 360 l 235 361 q 332 378 378 416 q 425 454 425 515 q 425 569 383 604 q 341 640 277 640 q 226 640 190 621 z m 426 328 q 457 227 535 131 q 584 71 659 23 q 547 -7 449 -68 l 444 -71 l 435 -63 q 528 -2 633 27 q 493 121 412 327 l 409 335 q 559 392 559 508 q 559 556 520 612 q 569 567 569 498 q 569 386 426 328 z"},"2":{"x_min":0,"x_max":600,"ha":600,"o":"m 512 177 l 512 40 l 58 40 q 75 119 121 178 q 167 237 252 291 q 329 339 355 368 q 408 425 408 502 q 408 562 373 597 q 338 632 277 632 q 225 632 191 602 q 157 573 157 527 q 157 491 178 467 q 200 443 232 443 q 265 443 292 472 l 300 468 q 294 430 266 406 q 238 383 198 383 q 142 383 105 418 q 69 453 69 507 q 69 578 127 625 q 186 671 274 671 q 370 671 436 618 q 501 564 501 486 q 501 374 343 286 l 268 245 q 186 200 137 114 q 136 112 135 110 l 166 110 q 204 180 305 235 l 373 271 q 454 315 490 364 q 527 413 527 475 q 527 569 445 631 l 448 635 q 542 586 542 475 q 542 348 381 261 l 314 224 q 207 166 184 110 l 336 110 q 430 110 460 122 q 491 135 502 177 z m 549 159 l 549 0 l 105 0 l 96 13 l 536 13 l 536 159 z m 401 499 q 373 592 286 592 q 250 592 225 570 q 200 549 200 518 q 200 475 244 456 l 244 449 q 219 454 203 473 q 188 493 188 520 q 188 556 216 581 q 244 605 286 605 q 335 605 368 575 q 401 545 401 499 z m 331 446 q 314 393 284 369 q 253 344 205 344 q 141 344 106 399 l 110 399 l 116 395 q 143 371 161 363 q 178 355 203 355 q 300 355 319 450 z"},"{":{"x_min":0,"x_max":440,"ha":440,"o":"m 327 747 l 327 706 q 263 706 232 677 q 201 647 201 588 q 201 565 206 549 l 220 507 q 227 484 227 464 q 227 382 109 362 l 109 358 q 131 355 147 351 q 254 373 254 450 q 254 471 247 493 l 233 535 q 228 551 228 574 q 228 634 259 663 q 290 692 354 692 l 354 733 l 367 727 l 367 686 q 303 686 272 657 q 241 627 241 567 q 241 544 246 528 l 260 486 q 267 465 267 446 q 267 371 156 348 q 229 319 229 248 q 229 228 223 203 l 210 156 q 203 132 203 107 q 203 14 268 -6 q 230 25 230 94 q 230 118 237 142 l 250 189 q 256 214 256 233 q 256 288 213 319 q 244 301 257 280 q 270 258 270 227 q 270 207 263 182 l 250 135 q 243 111 243 87 q 243 23 279 -9 q 301 -13 327 -13 l 327 -53 q 306 -51 265 -51 q 173 -51 138 -17 q 95 24 95 104 q 95 137 117 219 q 125 251 125 274 q 125 291 114 311 q 93 313 78 313 q 72 313 57 312 l 50 324 q 66 326 78 326 q 84 326 102 324 q 80 340 33 342 l 33 378 q 125 384 125 447 q 125 464 117 489 q 95 561 95 590 q 95 675 143 717 q 176 745 267 745 q 311 745 327 747 z m 367 -37 l 367 -86 q 245 -86 164 -66 l 164 -64 q 234 -73 315 -73 l 345 -74 l 354 -74 l 354 -25 z"},"9":{"x_min":0,"x_max":600,"ha":600,"o":"m 402 274 q 342 205 244 205 q 202 205 163 223 q 125 241 105 271 l 105 274 q 145 218 242 218 q 350 218 408 302 q 411 341 411 375 q 411 498 383 553 q 364 589 331 611 q 298 633 261 633 q 205 633 172 587 q 139 541 139 462 q 139 386 173 342 q 208 298 268 298 q 355 298 373 382 l 377 402 q 379 413 389 413 q 405 413 405 386 q 405 327 357 286 q 309 245 239 245 q 156 245 102 301 q 49 356 49 441 q 49 538 111 603 q 173 669 265 669 q 370 669 437 583 q 503 498 503 362 q 503 243 452 143 q 400 43 308 -17 q 215 -77 112 -77 q 83 -77 83 -62 q 83 -48 104 -46 q 227 -32 303 49 q 379 131 402 274 z m 377 537 q 331 593 275 593 q 184 593 184 456 q 184 399 206 359 q 228 320 265 309 l 265 305 q 222 312 196 354 q 170 395 170 457 q 170 528 197 568 q 225 607 274 607 q 307 607 335 588 q 363 569 377 537 z m 408 640 q 547 564 547 362 q 547 155 411 16 q 352 -45 276 -80 q 200 -114 125 -114 l 113 -114 l 109 -102 q 227 -102 328 -35 q 425 28 479 133 q 534 238 534 360 q 534 557 408 634 z"}," ":{"x_min":0,"x_max":250,"ha":250,"o":""},"I":{"x_min":0,"x_max":306,"ha":306,"o":"m 20 667 l 251 667 l 186 600 l 186 92 l 248 40 l 20 40 l 88 96 l 88 605 z m 273 639 l 224 589 l 224 92 l 306 0 l 52 0 l 40 13 l 277 13 l 210 87 l 210 594 l 265 648 z"},"H":{"x_min":0,"x_max":628,"ha":628,"o":"m 32 667 l 261 667 l 195 602 l 195 391 q 206 389 221 388 l 221 597 l 274 649 l 284 641 l 234 591 l 234 387 l 250 386 q 288 382 323 382 q 374 382 410 387 l 410 612 l 351 667 l 576 667 l 509 602 l 509 93 l 568 40 l 343 40 l 410 97 l 410 304 q 369 294 326 294 q 285 294 241 299 l 234 299 l 234 93 l 314 0 l 62 0 l 49 13 l 288 13 l 221 86 l 221 311 l 235 310 q 300 305 329 305 q 375 305 410 317 l 410 335 q 364 328 303 328 q 271 328 255 330 l 206 334 q 203 334 195 335 l 195 93 l 257 40 l 32 40 l 97 97 l 97 311 q 56 311 32 278 l 21 283 q 50 319 97 323 l 97 341 q 42 341 11 299 l 3 304 q 32 375 97 387 l 97 607 z m 597 639 l 547 591 l 547 93 l 628 0 l 375 0 l 362 13 l 600 13 l 535 87 l 535 596 l 589 649 z"},"4":{"x_min":0,"x_max":600,"ha":600,"o":"m 324 657 l 324 652 q 308 571 246 458 q 183 344 103 252 l 100 249 l 100 237 l 125 237 l 128 240 q 215 339 266 429 q 316 519 354 640 l 355 644 l 365 638 l 363 631 q 290 389 141 237 l 314 237 l 314 451 q 316 452 317 453 q 373 488 396 527 l 406 527 l 406 237 l 430 237 l 430 508 l 443 505 l 443 237 q 486 237 508 223 q 530 209 530 183 q 530 167 521 157 q 511 147 497 147 q 466 147 466 171 q 466 180 469 184 l 473 188 q 474 190 474 192 q 474 204 448 204 l 439 204 l 406 204 l 406 91 l 463 40 l 254 40 l 314 88 l 314 165 l 43 165 l 33 177 l 314 177 l 314 204 l 27 204 l 27 220 l 29 223 q 100 306 151 435 q 203 564 203 657 z m 528 221 q 543 219 555 204 q 566 189 566 171 q 566 150 554 135 q 541 121 522 121 q 504 121 484 133 l 484 139 q 503 129 517 129 q 534 129 545 142 q 557 154 557 172 q 557 185 553 191 q 549 198 531 218 q 530 219 528 221 z m 521 0 l 275 0 l 264 13 l 493 13 l 430 87 l 430 172 l 443 172 l 443 92 z"},"~":{"x_min":0,"x_max":667,"ha":667,"o":"m 520 733 l 537 722 q 513 676 477 648 q 440 620 403 620 q 382 620 346 631 l 317 641 l 289 650 q 256 661 232 661 q 193 661 156 618 q 153 615 147 608 l 129 620 q 188 723 265 723 q 291 723 351 702 q 405 684 428 684 q 479 684 520 733 z"},"D":{"x_min":0,"x_max":604,"ha":604,"o":"m 35 667 l 227 667 q 368 667 436 612 q 537 532 537 361 q 537 184 449 105 q 409 69 359 55 q 310 40 228 40 l 20 40 l 87 91 l 87 610 z m 183 625 l 183 78 l 209 78 l 209 593 q 235 597 256 597 q 296 597 319 589 q 342 581 366 560 q 314 584 255 584 q 242 584 222 582 l 222 78 q 276 78 305 87 q 333 96 358 122 q 429 193 429 363 q 429 528 353 589 q 306 625 206 625 z m 50 0 l 43 13 l 222 13 q 354 13 422 50 q 569 128 569 352 q 569 502 503 575 l 483 596 q 482 597 478 603 q 581 538 581 354 q 581 162 479 70 q 400 0 222 0 z"},"^":{"x_min":0,"x_max":500,"ha":500,"o":"m 527 282 l 478 282 l 295 566 l 104 282 l -27 282 l 254 700 l 262 700 z"},"0":{"x_min":0,"x_max":587,"ha":587,"o":"m 376 546 q 339 595 280 595 q 220 595 193 535 q 166 475 166 342 q 166 226 190 164 q 214 102 266 83 l 266 79 q 230 84 198 123 q 153 178 153 351 q 153 487 184 548 q 214 608 283 608 q 347 608 384 551 z m 271 676 q 363 676 432 605 q 520 516 520 341 q 520 197 455 113 q 390 30 278 30 q 164 30 95 120 q 26 210 26 359 q 26 503 93 590 q 160 676 271 676 z m 269 631 q 191 631 157 564 q 122 498 122 350 q 122 70 280 70 q 422 70 422 349 q 422 501 387 566 q 352 631 269 631 z m 404 657 q 478 624 519 542 q 561 460 561 346 q 561 155 471 64 q 399 -10 291 -10 q 241 -10 204 5 q 167 20 124 58 l 128 61 q 200 2 284 2 q 408 2 477 92 q 546 181 546 340 q 546 457 511 533 q 477 609 404 652 z"},"F":{"x_min":0,"x_max":551,"ha":551,"o":"m 31 667 l 538 667 q 507 626 494 604 q 481 581 461 530 l 458 520 q 425 586 394 606 q 362 625 288 625 l 260 625 l 212 625 l 194 626 l 194 397 l 224 397 l 224 599 l 238 600 q 269 601 303 601 q 402 601 427 549 q 403 572 375 580 q 347 588 289 588 q 268 588 236 586 l 236 397 l 310 397 l 388 480 l 388 275 l 306 356 l 194 356 l 194 110 l 257 47 l 17 47 l 97 110 l 97 320 q 59 320 31 292 l 21 302 q 50 333 97 333 l 97 356 q 86 357 82 357 q 37 357 3 320 l 0 328 q 22 392 97 397 l 97 604 z m 575 637 q 505 555 487 487 l 477 494 q 495 571 566 645 z m 424 463 l 424 252 l 411 259 l 411 470 z m 336 315 l 236 315 l 236 106 l 322 0 l 40 0 l 27 13 l 295 13 l 224 101 l 224 329 l 322 329 z"},"`":{"x_min":0,"x_max":500,"ha":500,"o":"m 192 860 l 260 767 l 203 767 l 91 860 z m 325 733 l 243 733 l 229 746 l 297 746 l 236 831 l 257 826 z"},"k":{"x_min":0,"x_max":677,"ha":677,"o":"m 24 667 l 252 667 l 185 602 l 185 307 l 211 338 l 211 598 l 266 651 l 273 641 l 223 592 l 223 353 l 375 534 q 407 573 407 604 q 407 623 389 639 q 370 656 344 662 l 344 667 l 601 667 l 601 662 q 517 641 419 524 l 351 443 l 531 93 l 613 40 l 360 40 l 424 88 l 303 330 l 223 233 l 223 93 l 303 0 l 52 0 l 39 13 l 273 13 l 211 88 l 211 239 l 296 344 l 286 365 l 185 245 l 185 93 l 244 40 l 20 40 l 87 97 l 87 608 z m 625 622 q 553 617 481 538 l 396 443 l 568 93 l 707 0 l 396 0 l 382 13 l 665 13 l 561 84 l 382 443 l 473 545 q 544 625 620 632 z"},"u":{"x_min":0,"x_max":607,"ha":607,"o":"m 581 667 l 493 597 l 493 281 q 493 194 488 156 q 482 118 465 94 q 423 31 302 31 q 174 31 124 94 q 83 143 83 283 l 83 607 l 17 667 l 247 667 l 181 602 l 181 282 l 182 207 q 182 134 212 104 q 242 73 314 73 q 393 73 423 120 q 447 157 447 281 l 449 597 l 373 667 z m 597 633 l 531 578 l 531 275 q 531 126 507 81 q 459 -11 320 -11 q 200 -11 140 49 l 144 47 l 161 37 q 221 2 315 2 q 450 2 494 87 q 517 133 517 271 l 517 584 l 590 644 z m 268 640 l 220 592 l 220 229 l 219 195 l 234 133 q 246 115 277 88 l 278 84 q 237 101 221 132 q 206 164 206 230 l 206 597 l 261 650 z"},"]":{"x_min":0,"x_max":438,"ha":438,"o":"m 73 699 l 73 747 l 298 747 l 298 -47 l 73 -47 l 73 1 l 189 1 l 189 659 l 98 659 l 89 672 l 189 672 l 189 699 z m 326 720 l 337 708 l 337 -86 l 99 -86 l 90 -73 l 326 -73 z"},"U":{"x_min":0,"x_max":607,"ha":607,"o":"m 581 667 l 493 597 l 493 281 q 493 194 488 156 q 482 118 465 94 q 423 31 302 31 q 174 31 124 94 q 83 143 83 283 l 83 607 l 17 667 l 247 667 l 181 602 l 181 282 l 182 207 q 182 134 212 104 q 242 73 314 73 q 393 73 423 120 q 447 157 447 281 l 449 597 l 373 667 z m 597 633 l 531 578 l 531 275 q 531 126 507 81 q 459 -11 320 -11 q 200 -11 140 49 l 144 47 l 161 37 q 221 2 315 2 q 450 2 494 87 q 517 133 517 271 l 517 584 l 590 644 z m 268 640 l 220 592 l 220 229 l 219 195 l 234 133 q 246 115 277 88 l 278 84 q 237 101 221 132 q 206 164 206 230 l 206 597 l 261 650 z"},"o":{"x_min":0,"x_max":624,"ha":624,"o":"m 398 558 l 390 562 q 343 588 304 588 q 176 588 176 336 q 176 151 255 91 l 251 86 q 202 121 181 177 q 161 234 161 330 q 161 601 303 601 q 368 601 398 558 z m 294 673 q 413 673 484 583 q 555 493 555 343 q 555 201 485 116 q 415 32 296 32 q 203 32 130 91 q 23 179 23 352 q 23 499 97 586 q 170 673 294 673 z m 294 631 q 129 631 129 341 q 129 73 292 73 q 367 73 407 144 q 446 215 446 352 q 446 506 408 567 q 368 631 294 631 z m 450 648 q 520 614 560 533 q 601 451 601 344 q 601 187 521 90 q 441 -6 311 -6 q 228 -6 156 50 l 156 52 q 216 8 308 8 q 430 8 509 100 q 587 192 587 336 q 587 443 552 523 q 516 603 450 643 z"},"N":{"x_min":0,"x_max":601,"ha":601,"o":"m 577 667 q 521 638 505 614 q 481 577 481 502 l 481 470 l 481 40 l 398 40 l 168 487 l 168 222 l 167 200 l 173 130 q 183 81 218 58 l 222 54 q 154 77 154 198 l 155 244 l 155 511 l 128 562 l 128 281 q 128 147 146 106 q 164 64 229 45 l 271 0 l 6 0 l -1 13 l 243 13 l 218 40 l -10 40 q 50 62 69 98 q 89 134 89 222 l 89 612 l 24 667 l 271 667 l 202 620 l 438 159 l 438 218 l 235 612 l 304 659 l 313 649 l 252 608 l 438 244 l 438 472 l 438 498 q 438 583 424 612 q 410 640 355 667 z m 594 630 l 585 616 q 548 607 534 583 q 521 560 521 503 l 521 0 l 416 0 l 410 13 l 508 13 l 508 499 q 508 567 526 594 q 543 622 594 630 z"},"+":{"x_min":0,"x_max":587,"ha":587,"o":"m 243 561 l 304 561 l 304 387 l 330 387 l 330 534 l 344 525 l 344 387 l 473 387 l 473 326 l 304 326 l 304 163 l 243 163 l 243 286 l 100 286 l 91 300 l 243 300 l 243 326 l 75 326 l 75 387 l 243 387 z m 344 286 l 344 112 l 280 112 l 270 124 l 330 124 l 330 300 l 501 300 l 501 360 l 512 350 l 512 286 z"},"G":{"x_min":0,"x_max":682,"ha":682,"o":"m 572 649 l 481 470 q 472 546 433 587 q 394 627 329 627 q 237 627 186 556 q 135 485 135 356 q 135 74 367 74 l 445 74 l 445 327 l 322 327 q 282 327 265 332 q 248 336 231 351 l 231 363 q 249 350 267 345 q 284 341 324 341 l 445 341 l 445 368 l 310 368 l 288 368 q 215 368 215 420 q 215 441 227 456 q 239 470 256 470 q 269 470 279 461 q 288 452 288 439 q 288 417 272 414 l 261 412 q 255 410 255 407 q 255 400 271 400 l 288 400 l 610 400 l 542 334 l 542 94 l 605 40 l 355 40 l 306 40 q 244 40 204 55 q 163 70 122 109 q 23 199 23 350 q 23 505 116 593 q 197 669 309 669 q 358 669 423 652 q 489 634 510 634 q 541 634 572 649 z m 602 619 l 518 455 l 506 460 l 590 625 z m 445 544 l 437 551 q 381 590 335 590 q 279 590 239 551 q 209 521 197 474 q 184 427 184 349 q 184 250 203 198 q 223 146 275 104 l 275 99 q 218 132 193 194 q 168 255 168 360 q 168 476 212 540 q 255 604 334 604 q 402 604 445 547 z m 631 373 l 581 322 l 581 93 l 662 0 l 468 1 l 292 0 q 275 0 267 0 q 236 4 205 27 l 215 27 q 248 13 306 13 l 330 13 l 634 13 l 567 88 l 567 327 l 623 384 z"},"q":{"x_min":0,"x_max":641,"ha":641,"o":"m 382 581 q 378 583 375 583 q 337 601 310 601 q 236 601 204 534 q 172 466 172 313 q 172 138 271 80 l 266 80 q 214 96 187 158 q 160 220 160 323 q 160 476 193 543 q 227 610 304 610 q 350 610 382 584 z m 444 80 q 488 35 550 35 q 583 35 624 54 l 627 52 q 604 20 590 -6 l 554 -71 l 552 -75 q 471 -61 412 12 q 361 -12 311 -12 q 229 -12 181 31 l 183 34 q 248 2 304 2 q 358 2 403 21 q 401 24 400 26 q 393 37 387 43 q 341 26 293 26 q 177 26 100 119 q 23 213 23 354 q 23 499 98 589 q 173 678 295 678 q 414 678 487 590 q 559 501 559 357 q 559 269 534 207 q 509 145 449 84 z m 419 153 q 452 225 452 361 q 452 639 288 639 q 127 639 127 347 q 127 215 171 141 q 216 66 293 66 q 326 66 357 80 q 328 134 280 134 q 277 134 269 133 l 303 175 q 338 165 389 124 l 395 119 q 401 126 409 138 l 411 141 q 378 173 326 191 l 333 203 q 375 187 413 158 z m 458 643 q 526 615 566 536 q 606 458 606 354 q 606 198 515 86 q 543 62 602 58 l 602 55 q 583 52 574 52 q 530 52 495 84 q 593 183 593 355 q 593 543 458 640 z m 664 29 q 625 -22 589 -88 l 586 -93 l 575 -87 q 591 -54 612 -23 l 650 32 l 653 36 z"},"d":{"x_min":0,"x_max":604,"ha":604,"o":"m 35 667 l 227 667 q 368 667 436 612 q 537 532 537 361 q 537 184 449 105 q 409 69 359 55 q 310 40 228 40 l 20 40 l 87 91 l 87 610 z m 183 625 l 183 78 l 209 78 l 209 593 q 235 597 256 597 q 296 597 319 589 q 342 581 366 560 q 314 584 255 584 q 242 584 222 582 l 222 78 q 276 78 305 87 q 333 96 358 122 q 429 193 429 363 q 429 528 353 589 q 306 625 206 625 z m 50 0 l 43 13 l 222 13 q 354 13 422 50 q 569 128 569 352 q 569 502 503 575 l 483 596 q 482 597 478 603 q 581 538 581 354 q 581 162 479 70 q 400 0 222 0 z"},"1":{"x_min":0,"x_max":600,"ha":600,"o":"m 335 657 l 335 91 l 395 40 l 185 40 l 247 91 l 247 521 q 218 506 189 506 q 145 506 120 542 l 124 542 q 154 518 188 518 q 221 518 247 535 l 247 565 q 213 541 169 541 q 145 541 128 552 q 112 563 112 580 q 112 604 135 605 q 155 606 155 587 q 155 583 154 580 q 154 578 154 577 q 154 569 167 569 q 199 569 230 594 q 262 619 277 657 z m 360 648 l 373 642 l 373 91 l 452 0 l 202 0 l 191 13 l 423 13 l 360 87 z"},"5":{"x_min":0,"x_max":600,"ha":600,"o":"m 95 657 l 350 657 l 367 657 q 416 657 433 664 q 451 671 452 692 q 452 698 448 698 q 446 698 442 694 q 437 689 429 689 q 406 689 406 711 q 406 733 430 733 q 448 733 463 715 q 479 696 479 674 q 479 626 437 604 q 396 582 306 582 l 139 582 l 139 416 l 147 422 q 157 431 166 436 l 166 556 l 308 556 l 350 556 l 414 563 q 452 572 476 600 q 500 628 500 663 q 500 688 487 715 l 490 715 l 494 709 q 511 679 511 654 q 511 605 465 574 q 420 542 349 542 l 309 542 l 179 542 l 179 443 q 225 467 279 467 q 384 467 449 405 q 513 343 513 242 q 513 138 446 78 q 379 18 263 18 q 168 18 107 61 q 46 104 34 178 l 40 182 q 112 217 147 246 q 143 219 143 194 q 143 129 176 93 q 209 57 269 57 q 334 57 372 109 q 410 161 410 251 q 410 335 373 380 q 336 425 269 425 q 180 425 126 341 l 95 360 z m 460 418 q 504 390 529 340 q 553 291 553 232 q 553 118 479 48 q 405 -22 285 -22 q 207 -22 139 19 l 139 23 q 212 -8 283 -8 q 400 -8 469 58 q 538 123 538 234 q 538 341 460 415 z m 191 230 q 187 203 187 183 q 187 145 209 116 q 231 87 270 75 l 270 69 q 227 75 200 109 q 173 142 173 190 q 173 210 179 234 z m 386 322 l 381 329 q 337 387 273 387 q 237 387 212 373 q 187 358 157 322 l 146 328 q 192 398 274 398 q 354 398 390 322 z"}}}
